<?plantuml 1.2026.2?><svg xmlns="http://www.w3.org/2000/svg" xmlns:xlink="http://www.w3.org/1999/xlink" contentStyleType="text/css" data-diagram-type="DESCRIPTION" height="1607.2917px" preserveAspectRatio="none" style="width:1350px;height:1607px;" version="1.1" viewBox="0 0 1350 1607" width="1350px" zoomAndPan="magnify"><title>Neural LOD: Repository-Wide Lifecycle Map (Stages 1-4)</title><defs><linearGradient id="g60lbbtd509om0" x1="50%" x2="50%" y1="0%" y2="100%"><stop offset="0%" stop-color="#FFFFFF"/><stop offset="100%" stop-color="#FFFFFF"/></linearGradient><filter height="300%" id="f60lbbtd509om" width="300%" x="-1" y="-1"><feGaussianBlur result="blurOut" stdDeviation="2.0833"/><feColorMatrix in="blurOut" result="blurOut2" type="matrix" values="0 0 0 0 0 0 0 0 0 0 0 0 0 0 0 0 0 0 .4 0"/><feOffset dx="4.1667" dy="4.1667" in="blurOut2" result="blurOut3"/><feBlend in="SourceGraphic" in2="blurOut3" mode="normal"/></filter><linearGradient id="g60lbbtd509om1" x1="50%" x2="50%" y1="0%" y2="100%"><stop offset="0%" stop-color="#B052C0"/><stop offset="100%" stop-color="#9C27B0"/></linearGradient></defs><g><g class="title" data-source-line="2"><rect fill="url(#g60lbbtd509om0)" height="58.6528" rx="4.1667" ry="4.1667" style="stroke:#CCCCCC;stroke-width:1.0417;" width="697.172" x="321.7265" y="20.8333"/><text fill="#2196F3" font-family="'Verdana'" font-size="20.8333" font-weight="bold" lengthAdjust="spacing" textLength="663.8387" x="338.3931" y="58.4452">Neural LOD: Repository-Wide Lifecycle Map (Stages 1-4)</text></g><!--cluster S1--><g class="cluster" data-qualified-name="S1" data-source-line="17" id="ent0002"><path d="M857.2917,546.1528 L1015.7206,546.1528 A6.25,6.25 0 0 1 1019.8873,550.3194 L1027.179,588.4277 L1333.3333,588.4277 A4.1667,4.1667 0 0 1 1337.5,592.5944 L1337.5,1165.9444 A4.1667,4.1667 0 0 1 1333.3333,1170.1111 L857.2917,1170.1111 A4.1667,4.1667 0 0 1 853.125,1165.9444 L853.125,550.3194 A4.1667,4.1667 0 0 1 857.2917,546.1528" fill="url(#g60lbbtd509om0)" filter="url(#f60lbbtd509om)" style="stroke:#2196F3;stroke-width:2.0833;"/><line style="stroke:#2196F3;stroke-width:2.0833;" x1="853.125" x2="1027.179" y1="588.4277" y2="588.4277"/><text fill="#FFFFFF" font-family="'Verdana'" font-size="12.5" font-weight="bold" lengthAdjust="spacing" textLength="139.679" x="867.7083" y="571.2199">Stage 1: Scalar Bias</text></g><!--cluster S2--><g class="cluster" data-qualified-name="S2" data-source-line="30" id="ent0011"><path d="M408.3333,791.9861 L609.9813,791.9861 A6.25,6.25 0 0 1 614.1479,796.1528 L621.4396,834.2611 L823.9583,834.2611 A4.1667,4.1667 0 0 1 828.125,838.4277 L828.125,1371.1528 A4.1667,4.1667 0 0 1 823.9583,1375.3194 L408.3333,1375.3194 A4.1667,4.1667 0 0 1 404.1667,1371.1528 L404.1667,796.1528 A4.1667,4.1667 0 0 1 408.3333,791.9861" fill="url(#g60lbbtd509om0)" filter="url(#f60lbbtd509om)" style="stroke:#2196F3;stroke-width:2.0833;"/><line style="stroke:#2196F3;stroke-width:2.0833;" x1="404.1667" x2="621.4396" y1="834.2611" y2="834.2611"/><text fill="#FFFFFF" font-family="'Verdana'" font-size="12.5" font-weight="bold" lengthAdjust="spacing" textLength="182.8979" x="418.75" y="817.0532">Stage 2: Per-Object Baker</text></g><!--cluster S3--><g class="cluster" data-qualified-name="S3" data-source-line="43" id="ent0020"><path d="M277.0833,110.2153 L472.7559,110.2153 A6.25,6.25 0 0 1 476.9226,114.3819 L484.2143,152.4902 L533.3333,152.4902 A4.1667,4.1667 0 0 1 537.5,156.6569 L537.5,471.1528 A4.1667,4.1667 0 0 1 533.3333,475.3194 L277.0833,475.3194 A4.1667,4.1667 0 0 1 272.9167,471.1528 L272.9167,114.3819 A4.1667,4.1667 0 0 1 277.0833,110.2153" fill="url(#g60lbbtd509om0)" filter="url(#f60lbbtd509om)" style="stroke:#2196F3;stroke-width:2.0833;"/><line style="stroke:#2196F3;stroke-width:2.0833;" x1="272.9167" x2="484.2143" y1="152.4902" y2="152.4902"/><text fill="#FFFFFF" font-family="'Verdana'" font-size="12.5" font-weight="bold" lengthAdjust="spacing" textLength="176.9226" x="287.5" y="135.2824">Stage 3: Vector Predictor</text></g><!--cluster S4--><g class="cluster" data-qualified-name="S4" data-source-line="53" id="ent0027"><path d="M20.8333,97.1944 L205.8675,97.1944 A6.25,6.25 0 0 1 210.0342,101.3611 L217.3258,139.4694 L243.75,139.4694 A4.1667,4.1667 0 0 1 247.9167,143.6361 L247.9167,716.9861 A4.1667,4.1667 0 0 1 243.75,721.1528 L20.8333,721.1528 A4.1667,4.1667 0 0 1 16.6667,716.9861 L16.6667,101.3611 A4.1667,4.1667 0 0 1 20.8333,97.1944" fill="url(#g60lbbtd509om0)" filter="url(#f60lbbtd509om)" style="stroke:#2196F3;stroke-width:2.0833;"/><line style="stroke:#2196F3;stroke-width:2.0833;" x1="16.6667" x2="217.3258" y1="139.4694" y2="139.4694"/><text fill="#FFFFFF" font-family="'Verdana'" font-size="12.5" font-weight="bold" lengthAdjust="spacing" textLength="166.2842" x="31.25" y="122.2616">Stage 4: REINFORCE RL</text></g><!--entity s1_log--><g class="entity" data-qualified-name="S1.s1_log" data-source-line="18" id="ent0003"><rect fill="#C0392B" filter="url(#f60lbbtd509om)" height="103.3" rx="4.1667" ry="4.1667" style="stroke:#7B241C;stroke-width:1.0417;" width="143.5852" x="887.5" y="601.3611"/><rect fill="#C0392B" height="10.4167" style="stroke:#7B241C;stroke-width:1.0417;" width="15.625" x="1010.2519" y="606.5694"/><rect fill="#C0392B" height="2.0833" style="stroke:#7B241C;stroke-width:1.0417;" width="4.1667" x="1008.1685" y="608.6528"/><rect fill="#C0392B" height="2.0833" style="stroke:#7B241C;stroke-width:1.0417;" width="4.1667" x="1008.1685" y="612.8194"/><text fill="#FFFFFF" font-family="'Verdana'" font-size="12.5" font-style="italic" lengthAdjust="spacing" textLength="48.3704" x="929.8991" y="645.1782">&#171;Logic&#187;</text><text fill="#FFFFFF" font-family="'Verdana'" font-size="12.5" lengthAdjust="spacing" textLength="81.0852" x="913.5417" y="681.2032">MetricLogger</text></g><!--entity s1_data--><g class="entity" data-qualified-name="S1.s1_data" data-source-line="19" id="ent0004"><rect fill="#1A6496" filter="url(#f60lbbtd509om)" height="103.3" rx="4.1667" ry="4.1667" style="stroke:#0D3E5F;stroke-width:1.0417;" width="177.6489" x="870.3125" y="847.1944"/><rect fill="#1A6496" height="10.4167" style="stroke:#0D3E5F;stroke-width:1.0417;" width="15.625" x="1027.1281" y="852.4028"/><rect fill="#1A6496" height="2.0833" style="stroke:#0D3E5F;stroke-width:1.0417;" width="4.1667" x="1025.0448" y="854.4861"/><rect fill="#1A6496" height="2.0833" style="stroke:#0D3E5F;stroke-width:1.0417;" width="4.1667" x="1025.0448" y="858.6528"/><text fill="#FFFFFF" font-family="'Verdana'" font-size="12.5" font-style="italic" lengthAdjust="spacing" textLength="45.6238" x="931.1167" y="891.0116">&#171;Data&#187;</text><text fill="#FFFFFF" font-family="'Verdana'" font-size="12.5" lengthAdjust="spacing" textLength="115.1489" x="896.3542" y="927.0365">Hardset Path Data</text></g><!--entity s1_mdl--><g class="entity" data-qualified-name="S1.s1_mdl" data-source-line="20" id="ent0005"><rect fill="#1E7B44" filter="url(#f60lbbtd509om)" height="103.3" rx="4.1667" ry="4.1667" style="stroke:#124D2B;stroke-width:1.0417;" width="167.5598" x="872.3958" y="1050.3194"/><rect fill="#1E7B44" height="10.4167" style="stroke:#124D2B;stroke-width:1.0417;" width="15.625" x="1019.1223" y="1055.5278"/><rect fill="#1E7B44" height="2.0833" style="stroke:#124D2B;stroke-width:1.0417;" width="4.1667" x="1017.039" y="1057.6111"/><rect fill="#1E7B44" height="2.0833" style="stroke:#124D2B;stroke-width:1.0417;" width="4.1667" x="1017.039" y="1061.7778"/><text fill="#FFFFFF" font-family="'Verdana'" font-size="12.5" font-style="italic" lengthAdjust="spacing" textLength="52.8992" x="924.5178" y="1094.1366">&#171;Model&#187;</text><text fill="#FFFFFF" font-family="'Verdana'" font-size="12.5" lengthAdjust="spacing" textLength="105.0598" x="898.4375" y="1130.1615">MLP Predictor v4</text></g><g class="entity" data-qualified-name="S1.GMN7" data-source-line="24" id="ent0008"><path d="M1085.4167,872.1944 L1085.4167,894.5903 L1048.875,898.7569 L1085.4167,902.9236 L1085.4167,925.4944 A4.1667,4.1667 0 0 0 1089.5833,929.6611 L1317.0675,929.6611 A4.1667,4.1667 0 0 0 1321.2341,925.4944 L1321.2341,878.4444 L1310.8175,868.0278 L1089.5833,868.0278 A4.1667,4.1667 0 0 0 1085.4167,872.1944" fill="url(#g60lbbtd509om1)" filter="url(#f60lbbtd509om)" style="stroke:#9C27B0;stroke-width:1.0417;"/><path d="M1310.8175,868.0278 L1310.8175,876.3611 A2.0833,2.0833 0 0 0 1312.9008,878.4444 L1321.2341,878.4444 L1310.8175,868.0278" fill="url(#g60lbbtd509om1)" style="stroke:#9C27B0;stroke-width:1.0417;"/><text fill="#FFFFFF" font-family="'Verdana'" font-size="12.5" font-weight="bold" lengthAdjust="spacing" textLength="68.1213" x="1102.0833" y="896.2199">Volatility:</text><text fill="#FFFFFF" font-family="'Verdana'" font-size="12.5" lengthAdjust="spacing" textLength="28.5217" x="1174.5992" y="896.2199">High</text><text fill="#FFFFFF" font-family="'Verdana'" font-size="12.5" font-weight="bold" lengthAdjust="spacing" textLength="78.1067" x="1102.0833" y="911.4115">Constraint:</text><text fill="#FFFFFF" font-family="'Verdana'" font-size="12.5" lengthAdjust="spacing" textLength="110.6079" x="1184.5846" y="911.4115">Waypoint-specific</text></g><!--entity s2_log--><g class="entity" data-qualified-name="S2.s2_log" data-source-line="31" id="ent0012"><rect fill="#C0392B" filter="url(#f60lbbtd509om)" height="103.3" rx="4.1667" ry="4.1667" style="stroke:#7B241C;stroke-width:1.0417;" width="151.5686" x="420.8333" y="847.1944"/><rect fill="#C0392B" height="10.4167" style="stroke:#7B241C;stroke-width:1.0417;" width="15.625" x="551.5686" y="852.4028"/><rect fill="#C0392B" height="2.0833" style="stroke:#7B241C;stroke-width:1.0417;" width="4.1667" x="549.4853" y="854.4861"/><rect fill="#C0392B" height="2.0833" style="stroke:#7B241C;stroke-width:1.0417;" width="4.1667" x="549.4853" y="858.6528"/><text fill="#FFFFFF" font-family="'Verdana'" font-size="12.5" font-style="italic" lengthAdjust="spacing" textLength="48.3704" x="467.2241" y="891.0116">&#171;Logic&#187;</text><text fill="#FFFFFF" font-family="'Verdana'" font-size="12.5" lengthAdjust="spacing" textLength="89.0686" x="446.875" y="927.0365">Baker Pipeline</text></g><!--entity s2_data--><g class="entity" data-qualified-name="S2.s2_data" data-source-line="32" id="ent0013"><rect fill="#1A6496" filter="url(#f60lbbtd509om)" height="103.3" rx="4.1667" ry="4.1667" style="stroke:#0D3E5F;stroke-width:1.0417;" width="169.519" x="421.3542" y="1050.3194"/><rect fill="#1A6496" height="10.4167" style="stroke:#0D3E5F;stroke-width:1.0417;" width="15.625" x="570.0399" y="1055.5278"/><rect fill="#1A6496" height="2.0833" style="stroke:#0D3E5F;stroke-width:1.0417;" width="4.1667" x="567.9565" y="1057.6111"/><rect fill="#1A6496" height="2.0833" style="stroke:#0D3E5F;stroke-width:1.0417;" width="4.1667" x="567.9565" y="1061.7778"/><text fill="#FFFFFF" font-family="'Verdana'" font-size="12.5" font-style="italic" lengthAdjust="spacing" textLength="45.6238" x="478.0935" y="1094.1366">&#171;Data&#187;</text><text fill="#FFFFFF" font-family="'Verdana'" font-size="12.5" lengthAdjust="spacing" textLength="107.019" x="447.3958" y="1130.1615">Baker Mesh Data</text></g><!--entity s2_mdl--><g class="entity" data-qualified-name="S2.s2_mdl" data-source-line="33" id="ent0014"><rect fill="#1E7B44" filter="url(#f60lbbtd509om)" height="103.3" rx="4.1667" ry="4.1667" style="stroke:#124D2B;stroke-width:1.0417;" width="147.9187" x="432.2917" y="1255.5278"/><rect fill="#1E7B44" height="10.4167" style="stroke:#124D2B;stroke-width:1.0417;" width="15.625" x="559.377" y="1260.7361"/><rect fill="#1E7B44" height="2.0833" style="stroke:#124D2B;stroke-width:1.0417;" width="4.1667" x="557.2937" y="1262.8194"/><rect fill="#1E7B44" height="2.0833" style="stroke:#124D2B;stroke-width:1.0417;" width="4.1667" x="557.2937" y="1266.9861"/><text fill="#FFFFFF" font-family="'Verdana'" font-size="12.5" font-style="italic" lengthAdjust="spacing" textLength="52.8992" x="474.5931" y="1299.3449">&#171;Model&#187;</text><text fill="#FFFFFF" font-family="'Verdana'" font-size="12.5" lengthAdjust="spacing" textLength="85.4187" x="458.3333" y="1335.3699">Baker MLP v7</text></g><g class="entity" data-qualified-name="S2.GMN16" data-source-line="37" id="ent0017"><path d="M628.125,1075.3194 L628.125,1097.7153 L591.3333,1101.8819 L628.125,1106.0486 L628.125,1128.6194 A4.1667,4.1667 0 0 0 632.2917,1132.7861 L807.0536,1132.7861 A4.1667,4.1667 0 0 0 811.2203,1128.6194 L811.2203,1081.5694 L800.8036,1071.1528 L632.2917,1071.1528 A4.1667,4.1667 0 0 0 628.125,1075.3194" fill="url(#g60lbbtd509om1)" filter="url(#f60lbbtd509om)" style="stroke:#9C27B0;stroke-width:1.0417;"/><path d="M800.8036,1071.1528 L800.8036,1079.4861 A2.0833,2.0833 0 0 0 802.887,1081.5694 L811.2203,1081.5694 L800.8036,1071.1528" fill="url(#g60lbbtd509om1)" style="stroke:#9C27B0;stroke-width:1.0417;"/><text fill="#FFFFFF" font-family="'Verdana'" font-size="12.5" lengthAdjust="spacing" textLength="140.387" x="644.7917" y="1099.3449">Profiles rendering cost</text><text fill="#FFFFFF" font-family="'Verdana'" font-size="12.5" lengthAdjust="spacing" textLength="138.0066" x="644.7917" y="1114.5365">at thousands of poses</text></g><!--entity s3_mdl--><g class="entity" data-qualified-name="S3.s3_mdl" data-source-line="44" id="ent0021"><rect fill="#1E7B44" filter="url(#f60lbbtd509om)" height="103.3" rx="4.1667" ry="4.1667" style="stroke:#124D2B;stroke-width:1.0417;" width="163.1409" x="306.7708" y="355.5278"/><rect fill="#1E7B44" height="10.4167" style="stroke:#124D2B;stroke-width:1.0417;" width="15.625" x="449.0784" y="360.7361"/><rect fill="#1E7B44" height="2.0833" style="stroke:#124D2B;stroke-width:1.0417;" width="4.1667" x="446.995" y="362.8194"/><rect fill="#1E7B44" height="2.0833" style="stroke:#124D2B;stroke-width:1.0417;" width="4.1667" x="446.995" y="366.9861"/><text fill="#FFFFFF" font-family="'Verdana'" font-size="12.5" font-style="italic" lengthAdjust="spacing" textLength="52.8992" x="356.6833" y="399.3449">&#171;Model&#187;</text><text fill="#FFFFFF" font-family="'Verdana'" font-size="12.5" lengthAdjust="spacing" textLength="100.6409" x="332.8125" y="435.3699">Vector Predictor</text></g><g class="entity" data-qualified-name="S3.GMN24" data-source-line="47" id="ent0025"><path d="M290.1042,169.5903 L290.1042,238.0819 A4.1667,4.1667 0 0 0 294.2708,242.2485 L397.9063,242.2485 L392.7292,355.4965 L406.2396,242.2485 L516.4632,242.2485 A4.1667,4.1667 0 0 0 520.6299,238.0819 L520.6299,175.8403 L510.2132,165.4236 L294.2708,165.4236 A4.1667,4.1667 0 0 0 290.1042,169.5903" fill="url(#g60lbbtd509om1)" filter="url(#f60lbbtd509om)" style="stroke:#9C27B0;stroke-width:1.0417;"/><path d="M510.2132,165.4236 L510.2132,173.7569 A2.0833,2.0833 0 0 0 512.2965,175.8403 L520.6299,175.8403 L510.2132,165.4236" fill="url(#g60lbbtd509om1)" style="stroke:#9C27B0;stroke-width:1.0417;"/><text fill="#FFFFFF" font-family="'Verdana'" font-size="12.5" font-weight="bold" lengthAdjust="spacing" textLength="187.8174" x="306.7708" y="193.6157">New Model / Reused Data:</text><text fill="#FFFFFF" font-family="'Verdana'" font-size="12.5" lengthAdjust="spacing" textLength="162.5488" x="306.7708" y="208.8074">Trains a 4-value predictor</text><text fill="#FFFFFF" font-family="'Verdana'" font-size="12.5" lengthAdjust="spacing" textLength="176.9653" x="306.7708" y="223.999">without new collection time.</text></g><!--entity s4_log--><g class="entity" data-qualified-name="S4.s4_log" data-source-line="54" id="ent0028"><rect fill="#C0392B" filter="url(#f60lbbtd509om)" height="103.3" rx="4.1667" ry="4.1667" style="stroke:#7B241C;stroke-width:1.0417;" width="164.6118" x="33.3333" y="152.4028"/><rect fill="#C0392B" height="10.4167" style="stroke:#7B241C;stroke-width:1.0417;" width="15.625" x="177.1118" y="157.6111"/><rect fill="#C0392B" height="2.0833" style="stroke:#7B241C;stroke-width:1.0417;" width="4.1667" x="175.0285" y="159.6944"/><rect fill="#C0392B" height="2.0833" style="stroke:#7B241C;stroke-width:1.0417;" width="4.1667" x="175.0285" y="163.8611"/><text fill="#FFFFFF" font-family="'Verdana'" font-size="12.5" font-style="italic" lengthAdjust="spacing" textLength="48.3704" x="86.2457" y="196.2199">&#171;Logic&#187;</text><text fill="#FFFFFF" font-family="'Verdana'" font-size="12.5" lengthAdjust="spacing" textLength="102.1118" x="59.375" y="232.2449">RLRolloutLogger</text></g><!--entity s4_data--><g class="entity" data-qualified-name="S4.s4_data" data-source-line="55" id="ent0029"><rect fill="#1A6496" filter="url(#f60lbbtd509om)" height="103.3" rx="4.1667" ry="4.1667" style="stroke:#0D3E5F;stroke-width:1.0417;" width="153.1067" x="33.8542" y="355.5278"/><rect fill="#1A6496" height="10.4167" style="stroke:#0D3E5F;stroke-width:1.0417;" width="15.625" x="166.1275" y="360.7361"/><rect fill="#1A6496" height="2.0833" style="stroke:#0D3E5F;stroke-width:1.0417;" width="4.1667" x="164.0442" y="362.8194"/><rect fill="#1A6496" height="2.0833" style="stroke:#0D3E5F;stroke-width:1.0417;" width="4.1667" x="164.0442" y="366.9861"/><text fill="#FFFFFF" font-family="'Verdana'" font-size="12.5" font-style="italic" lengthAdjust="spacing" textLength="45.6238" x="82.3873" y="399.3449">&#171;Data&#187;</text><text fill="#FFFFFF" font-family="'Verdana'" font-size="12.5" lengthAdjust="spacing" textLength="90.6067" x="59.8958" y="435.3699">Mixed RL Data</text></g><!--entity s4_mdl--><g class="entity" data-qualified-name="S4.s4_mdl" data-source-line="56" id="ent0030"><rect fill="#1E7B44" filter="url(#f60lbbtd509om)" height="103.3" rx="4.1667" ry="4.1667" style="stroke:#124D2B;stroke-width:1.0417;" width="186.7432" x="39.0625" y="601.3611"/><rect fill="#1E7B44" height="10.4167" style="stroke:#124D2B;stroke-width:1.0417;" width="15.625" x="204.9723" y="606.5694"/><rect fill="#1E7B44" height="2.0833" style="stroke:#124D2B;stroke-width:1.0417;" width="4.1667" x="202.889" y="608.6528"/><rect fill="#1E7B44" height="2.0833" style="stroke:#124D2B;stroke-width:1.0417;" width="4.1667" x="202.889" y="612.8194"/><text fill="#FFFFFF" font-family="'Verdana'" font-size="12.5" font-style="italic" lengthAdjust="spacing" textLength="52.8992" x="100.7762" y="645.1782">&#171;Model&#187;</text><text fill="#FFFFFF" font-family="'Verdana'" font-size="12.5" lengthAdjust="spacing" textLength="124.2432" x="65.1042" y="681.2032">Champion RL Model</text></g><!--link s1_log to s1_data--><g class="link" data-entity-1="ent0003" data-entity-2="ent0004" data-link-type="dependency" data-source-line="22" id="lnk6"><path d="M959.375,704.7673 C959.375,746.4861 959.375,799.0278 959.375,840.7257" fill="none" id="s1_log-to-s1_data" style="stroke:#2196F3;stroke-width:3.125;"/><polygon fill="#2196F3" points="959.375,846.9757,963.5417,837.6007,959.375,841.7673,955.2083,837.6007,959.375,846.9757" style="stroke:#2196F3;stroke-width:3.125;"/><text fill="#222222" font-family="'Verdana'" font-size="12.5" lengthAdjust="spacing" textLength="115.1123" x="970.8333" y="761.8449">Collect (Standard)</text></g><!--link s1_data to s1_mdl--><g class="link" data-entity-1="ent0004" data-entity-2="ent0005" data-link-type="dependency" data-source-line="27" id="lnk10"><path d="M958.5833,950.5278 C958.1146,981.0069 957.6066,1013.4035 957.1378,1043.8722" fill="none" id="s1_data-to-s1_mdl" style="stroke:#2196F3;stroke-width:3.125;"/><polygon fill="#2196F3" points="957.0417,1050.1215,961.3521,1040.8117,957.1218,1044.9138,953.0197,1040.6835,957.0417,1050.1215" style="stroke:#2196F3;stroke-width:3.125;"/><text fill="#222222" font-family="'Verdana'" font-size="12.5" lengthAdjust="spacing" textLength="107.4402" x="968.75" y="1005.5949">Train (Oracle v3)</text></g><!--link s2_log to s2_data--><g class="link" data-entity-1="ent0012" data-entity-2="ent0013" data-link-type="dependency" data-source-line="35" id="lnk15"><path d="M485.5521,950.3507 C482.2396,971.6007 480.2396,996.5694 483.3333,1019.0694 C484.7396,1029.2986 485.5156,1033.9907 488.1823,1044.2094" fill="none" id="s2_log-to-s2_data" style="stroke:#2196F3;stroke-width:3.125;"/><polygon fill="#2196F3" points="489.7604,1050.2569,491.4249,1040.1336,488.4453,1045.2174,483.3616,1042.2378,489.7604,1050.2569" style="stroke:#2196F3;stroke-width:3.125;"/><text fill="#222222" font-family="'Verdana'" font-size="12.5" lengthAdjust="spacing" textLength="106.0242" x="494.7917" y="1005.5949">Collect (3D Grid)</text></g><!--link s2_data to s2_mdl--><g class="link" data-entity-1="ent0013" data-entity-2="ent0014" data-link-type="dependency" data-source-line="40" id="lnk19"><path d="M506.25,1153.6528 C506.25,1184.6736 506.25,1217.9757 506.25,1249.0069" fill="none" id="s2_data-to-s2_mdl" style="stroke:#2196F3;stroke-width:3.125;"/><polygon fill="#2196F3" points="506.25,1255.2569,510.4167,1245.8819,506.25,1250.0486,502.0833,1245.8819,506.25,1255.2569" style="stroke:#2196F3;stroke-width:3.125;"/><text fill="#222222" font-family="'Verdana'" font-size="12.5" lengthAdjust="spacing" textLength="117.4683" x="517.7083" y="1210.8032">Train (Huber Loss)</text></g><!--reverse link s3_mdl to s2_data--><g class="link" data-entity-1="ent0021" data-entity-2="ent0013" data-link-type="dependency" data-source-line="45" id="lnk23"><path d="M427.5514,463.9946 C474.4159,533.6508 552.1042,659.3403 591.6667,783.6528 C623.5625,883.8715 662.7292,925.0382 615.625,1019.0694 C609.6771,1030.9444 601.1042,1041.5278 591.3229,1050.8298" fill="none" id="s3_mdl-backto-s2_data" style="stroke:#2196F3;stroke-width:3.125;"/><polygon fill="#2196F3" points="424.0625,458.809,425.8387,468.9133,426.9699,463.1303,432.7528,464.2615,424.0625,458.809" style="stroke:#2196F3;stroke-width:3.125;"/><text fill="#222222" font-family="'Verdana'" font-size="12.5" font-weight="bold" lengthAdjust="spacing" textLength="88.4644" x="600" y="761.8449">REUSE DATA</text></g><!--link s4_log to s4_data--><g class="link" data-entity-1="ent0028" data-entity-2="ent0029" data-link-type="dependency" data-source-line="58" id="lnk31"><path d="M112.7083,255.5903 C112.2188,265.9028 111.7604,276.6944 111.4583,286.7778 C110.7917,309.2361 110.5338,327.8299 110.4192,349.007" fill="none" id="s4_log-to-s4_data" style="stroke:#2196F3;stroke-width:3.125;"/><polygon fill="#2196F3" points="110.3854,355.2569,114.6027,345.9046,110.4136,350.0487,106.2695,345.8595,110.3854,355.2569" style="stroke:#2196F3;stroke-width:3.125;"/><text fill="#222222" font-family="'Verdana'" font-size="12.5" lengthAdjust="spacing" textLength="139.2029" x="122.9167" y="310.8032">Collect (Null + Active)</text></g><!--link s4_data to s4_mdl--><g class="link" data-entity-1="ent0029" data-entity-2="ent0030" data-link-type="dependency" data-source-line="59" id="lnk32"><path d="M108.2292,458.6736 C107.8333,469.6528 107.4896,481.2048 107.2917,491.9861 C106.9792,508.6528 105.6146,512.9028 107.2917,529.4861 C109.6979,553.3298 113.3255,573.2925 118.2214,595.2196" fill="none" id="s4_data-to-s4_mdl" style="stroke:#2196F3;stroke-width:3.125;"/><polygon fill="#2196F3" points="119.5833,601.3194,121.6069,591.2617,118.4484,596.2362,113.4739,593.0777,119.5833,601.3194" style="stroke:#2196F3;stroke-width:3.125;"/><text fill="#222222" font-family="'Verdana'" font-size="12.5" lengthAdjust="spacing" textLength="121.1853" x="118.75" y="516.0116">Train (REINFORCE)</text></g><!--link s1_mdl to s2_mdl--><!--link s2_mdl to s3_mdl--><!--link s3_mdl to s4_mdl--><g class="legend" data-source-line="66"><rect fill="#FFFFFF" height="191.7277" rx="4.1667" ry="4.1667" style="stroke:#CCCCCC;stroke-width:1.0417;" width="236.6343" x="1083.1573" y="1391.9861"/><text fill="#222222" font-family="'Verdana'" font-size="14.5833" lengthAdjust="spacing" textLength="38.1104" x="1115.3676" y="1435.8144">Color</text><text fill="#222222" font-family="'Verdana'" font-size="14.5833" lengthAdjust="spacing" textLength="35.3902" x="1184.5652" y="1435.8144">Type</text><rect fill="#AED6F1" height="38.5569" style="stroke:none;stroke-width:1.0417;" width="69.1976" x="1099.824" y="1449.293"/><text fill="#222222" font-family="'Verdana'" font-size="14.5833" lengthAdjust="spacing" textLength="5.127" x="1110.2407" y="1474.3713">&#160;</text><text fill="#222222" font-family="'Verdana'" font-size="14.5833" lengthAdjust="spacing" textLength="92.7979" x="1184.5652" y="1474.3713">Data Artifact</text><rect fill="#D5F5E3" height="38.5569" style="stroke:none;stroke-width:1.0417;" width="69.1976" x="1099.824" y="1487.8499"/><text fill="#222222" font-family="'Verdana'" font-size="14.5833" lengthAdjust="spacing" textLength="5.127" x="1110.2407" y="1512.9283">&#160;</text><text fill="#222222" font-family="'Verdana'" font-size="14.5833" lengthAdjust="spacing" textLength="103.0162" x="1184.5652" y="1512.9283">Trained Model</text><rect fill="#FADBD8" height="38.5569" style="stroke:none;stroke-width:1.0417;" width="69.1976" x="1099.824" y="1526.4069"/><text fill="#222222" font-family="'Verdana'" font-size="14.5833" lengthAdjust="spacing" textLength="5.127" x="1110.2407" y="1551.4852">&#160;</text><text fill="#222222" font-family="'Verdana'" font-size="14.5833" lengthAdjust="spacing" textLength="97.5972" x="1184.5652" y="1551.4852">System Logic</text><line style="stroke:#222222;stroke-width:1.0417;" x1="1099.824" x2="1303.125" y1="1410.7361" y2="1410.7361"/><line style="stroke:#222222;stroke-width:1.0417;" x1="1099.824" x2="1303.125" y1="1449.293" y2="1449.293"/><line style="stroke:#222222;stroke-width:1.0417;" x1="1099.824" x2="1303.125" y1="1487.8499" y2="1487.8499"/><line style="stroke:#222222;stroke-width:1.0417;" x1="1099.824" x2="1303.125" y1="1526.4069" y2="1526.4069"/><line style="stroke:#222222;stroke-width:1.0417;" x1="1099.824" x2="1303.125" y1="1564.9638" y2="1564.9638"/><line style="stroke:#222222;stroke-width:1.0417;" x1="1099.824" x2="1099.824" y1="1410.7361" y2="1564.9638"/><line style="stroke:#222222;stroke-width:1.0417;" x1="1169.0216" x2="1169.0216" y1="1410.7361" y2="1564.9638"/><line style="stroke:#222222;stroke-width:1.0417;" x1="1303.125" x2="1303.125" y1="1410.7361" y2="1564.9638"/></g><?plantuml-src VPJRRjf048RlUOffSfDGkQqFIHeKHG8CJIKW2DBa8eggZJt0DiPhxIwagEcxTtPjWZ5M4HA7EVtxpU_ze1UuH5WoZPApXkOwGHZXIh841hTX2oQO2SMra1ldWSS80px3Q1DHrf1bS3BLR8uAN2SuRJJK2qyp9jaI8h7CH8gfXZyDW0wBNkPIhDAuAn8Xhwv2fjdrDS2nspuFBizDYf0noahOl8w_X7xlh4yfVP7gcWHAwTjNesxIKCIOKEgnsxle145rqZPisxXU47gT_KdbXFzF6eWvZyoaxXV_qhRPcxGDspON7Izmk_kJoWcxINyR6GqYnd1aKOFRWcd44YQXmvaw0gPWwbhAE-QFGzIIHzHnZl89ThqfMRa_4p7VJxzXCbQeOSpq0WnRKrCmpajY-b4PCHZ3M6BC8_86h0DJieMLropZX4hedOy4nxdUje8MqAaJZBHrK1gJW5FAJ8L6a7o-q21cfRa0pUQzI9Zc2TURLhC9DvHK1BeYLLeodceJU62RJD1tHsKOyHcFA0lJsBREjLW1XHZII5hkJ3MSt4fcVBtsJmbxbRlNWZ5Av_Rvbr7TOIyeS_XU5RwDmPXdcF0Kg_YzG_nvmH1LBNol1dvHGIjONrJ1UoNmtWwyTm3U3-6Rv7NSlHttiHGpdj0JBWaYNH7fd7GeRMDCWrw8bQBzALD75mMg2cwlXDlRntspUgP338HITRpz5joZzTQxotBUVfLtDQqAn2-0xBIiCgl7B_GqcvFUZsaFmlPTkzdSuj0Yip2svSPg8tm5sne-qyMuKXZRZRLi5UG7Ky0WSDOiMI5aMqqs_CeDBWqfTOdoBN2HWkPB_5J6TWWZe7kuzttKlvrqUp0Pv222AeZ9O49TQKBzWnySEc_8VzCH9eCwtmKrlkiks38pcgd4SgYo3ahc2tRc2mxCDreb2No4DY5OuscUldDAiE-KzxDRenIFhVEuu76CwPEpzNnXi78WNrwnwN8W5zf8S6wmM-kJY3Umbp5ztcqoX3VprzLnknUUzzthDqi9sbBp6QCp5D7mh7_MyobgnHBEt215jDyEE-5NYautIkCIx48eQARcmnl_0000?></g></svg>