<?plantuml 1.2026.2?><svg xmlns="http://www.w3.org/2000/svg" xmlns:xlink="http://www.w3.org/1999/xlink" contentStyleType="text/css" data-diagram-type="MINDMAP" height="768.75px" preserveAspectRatio="none" style="width:1584px;height:768px;" version="1.1" viewBox="0 0 1584 768" width="1584.375px" zoomAndPan="magnify"><defs><linearGradient id="g6ebhoa8armn70" x1="50%" x2="50%" y1="0%" y2="100%"><stop offset="0%" stop-color="#FFFFFF"/><stop offset="100%" stop-color="#FFFFFF"/></linearGradient><filter height="300%" id="f6ebhoa8armn7" width="300%" x="-1" y="-1"><feGaussianBlur result="blurOut" stdDeviation="2.0833"/><feColorMatrix in="blurOut" result="blurOut2" type="matrix" values="0 0 0 0 0 0 0 0 0 0 0 0 0 0 0 0 0 0 .4 0"/><feOffset dx="4.1667" dy="4.1667" in="blurOut2" result="blurOut3"/><feBlend in="SourceGraphic" in2="blurOut3" mode="normal"/></filter></defs><g><g class="header" data-source-line="2"><text fill="#FFFFFF" font-family="'Verdana'" font-size="10.4167" lengthAdjust="spacing" textLength="99.8688" x="1439.2853" y="47.9726">Neural LOD Project</text></g><rect fill="url(#g6ebhoa8armn70)" filter="url(#f6ebhoa8armn7)" height="46.4417" rx="4.1667" ry="4.1667" style="stroke:#222222;stroke-width:1.0417;" width="192.9504" x="665.7308" y="324.1638"/><text fill="#222222" font-family="'Verdana'" font-size="12.5" lengthAdjust="spacing" textLength="161.7004" x="681.3558" y="352.356">LOD Optimization System</text><rect fill="url(#g6ebhoa8armn70)" filter="url(#f6ebhoa8armn7)" height="46.4417" rx="4.1667" ry="4.1667" style="stroke:#222222;stroke-width:1.0417;" width="249.5361" x="910.7646" y="189.6139"/><text fill="#222222" font-family="'Verdana'" font-size="12.5" lengthAdjust="spacing" textLength="218.2861" x="926.3896" y="217.806">Stage 3: Granular Vector Predictor</text><rect fill="url(#g6ebhoa8armn70)" filter="url(#f6ebhoa8armn7)" height="46.4417" rx="4.1667" ry="4.1667" style="stroke:#222222;stroke-width:1.0417;" width="252.24" x="1212.384" y="88.7014"/><text fill="#222222" font-family="'Verdana'" font-size="12.5" lengthAdjust="spacing" textLength="220.99" x="1228.009" y="116.8935">Focus: Per-Level Transition Control</text><path d="M1160.3007,212.8347 L1170.7174,212.8347 C1186.3424,212.8347 1186.3424,111.9222 1201.9674,111.9222 L1212.384,111.9222" fill="none" style="stroke:#2196F3;stroke-width:3.125;"/><rect fill="url(#g6ebhoa8armn70)" filter="url(#f6ebhoa8armn7)" height="46.4417" rx="4.1667" ry="4.1667" style="stroke:#222222;stroke-width:1.0417;" width="313.4644" x="1212.384" y="155.9764"/><text fill="#222222" font-family="'Verdana'" font-size="12.5" lengthAdjust="spacing" textLength="282.2144" x="1228.009" y="184.1685">Granularity: Independent LOD0-3 thresholds</text><path d="M1160.3007,212.8347 L1170.7174,212.8347 C1186.3424,212.8347 1186.3424,179.1972 1201.9674,179.1972 L1212.384,179.1972" fill="none" style="stroke:#2196F3;stroke-width:3.125;"/><rect fill="url(#g6ebhoa8armn70)" filter="url(#f6ebhoa8armn7)" height="46.4417" rx="4.1667" ry="4.1667" style="stroke:#222222;stroke-width:1.0417;" width="243.3411" x="1212.384" y="223.2513"/><text fill="#222222" font-family="'Verdana'" font-size="12.5" lengthAdjust="spacing" textLength="212.0911" x="1228.009" y="251.4435">Method: Multi-output MLP (GELU)</text><path d="M1160.3007,212.8347 L1170.7174,212.8347 C1186.3424,212.8347 1186.3424,246.4722 1201.9674,246.4722 L1212.384,246.4722" fill="none" style="stroke:#2196F3;stroke-width:3.125;"/><rect fill="url(#g6ebhoa8armn70)" filter="url(#f6ebhoa8armn7)" height="46.4417" rx="4.1667" ry="4.1667" style="stroke:#222222;stroke-width:1.0417;" width="285.5835" x="1212.384" y="290.5263"/><text fill="#222222" font-family="'Verdana'" font-size="12.5" lengthAdjust="spacing" textLength="254.3335" x="1228.009" y="318.7185">Integration: Mono-behavioral SetLODs()</text><path d="M1160.3007,212.8347 L1170.7174,212.8347 C1186.3424,212.8347 1186.3424,313.7472 1201.9674,313.7472 L1212.384,313.7472" fill="none" style="stroke:#2196F3;stroke-width:3.125;"/><path d="M858.6812,347.3846 L869.0979,347.3846 C884.7229,347.3846 884.7229,212.8347 900.3479,212.8347 L910.7646,212.8347" fill="none" style="stroke:#2196F3;stroke-width:3.125;"/><rect fill="url(#g6ebhoa8armn70)" filter="url(#f6ebhoa8armn7)" height="46.4417" rx="4.1667" ry="4.1667" style="stroke:#222222;stroke-width:1.0417;" width="220.6177" x="910.7646" y="458.7138"/><text fill="#222222" font-family="'Verdana'" font-size="12.5" lengthAdjust="spacing" textLength="189.3677" x="926.3896" y="486.9059">Stage 4: Continuous RL Policy</text><rect fill="url(#g6ebhoa8armn70)" filter="url(#f6ebhoa8armn7)" height="46.4417" rx="4.1667" ry="4.1667" style="stroke:#222222;stroke-width:1.0417;" width="289.3372" x="1183.4656" y="357.8013"/><text fill="#222222" font-family="'Verdana'" font-size="12.5" lengthAdjust="spacing" textLength="258.0872" x="1199.0906" y="385.9934">Focus: Dynamic Delta-Control &amp; Stability</text><path d="M1131.3822,481.9346 L1141.7989,481.9346 C1157.4239,481.9346 1157.4239,381.0221 1173.0489,381.0221 L1183.4656,381.0221" fill="none" style="stroke:#2196F3;stroke-width:3.125;"/><rect fill="url(#g6ebhoa8armn70)" filter="url(#f6ebhoa8armn7)" height="46.4417" rx="4.1667" ry="4.1667" style="stroke:#222222;stroke-width:1.0417;" width="226.5686" x="1183.4656" y="425.0763"/><text fill="#222222" font-family="'Verdana'" font-size="12.5" lengthAdjust="spacing" textLength="195.3186" x="1199.0906" y="453.2684">Method: REINFORCE Algorithm</text><path d="M1131.3822,481.9346 L1141.7989,481.9346 C1157.4239,481.9346 1157.4239,448.2971 1173.0489,448.2971 L1183.4656,448.2971" fill="none" style="stroke:#2196F3;stroke-width:3.125;"/><rect fill="url(#g6ebhoa8armn70)" filter="url(#f6ebhoa8armn7)" height="46.4417" rx="4.1667" ry="4.1667" style="stroke:#222222;stroke-width:1.0417;" width="278.9673" x="1183.4656" y="492.3513"/><text fill="#222222" font-family="'Verdana'" font-size="12.5" lengthAdjust="spacing" textLength="247.7173" x="1199.0906" y="520.5434">Filters: EMA Smoothing + Dwell Timers</text><path d="M1131.3822,481.9346 L1141.7989,481.9346 C1157.4239,481.9346 1157.4239,515.5721 1173.0489,515.5721 L1183.4656,515.5721" fill="none" style="stroke:#2196F3;stroke-width:3.125;"/><rect fill="url(#g6ebhoa8armn70)" filter="url(#f6ebhoa8armn7)" height="46.4417" rx="4.1667" ry="4.1667" style="stroke:#222222;stroke-width:1.0417;" width="383.8135" x="1183.4656" y="559.6263"/><text fill="#222222" font-family="'Verdana'" font-size="12.5" lengthAdjust="spacing" textLength="352.5635" x="1199.0906" y="587.8184">Goal: 5.0ms Stress-Target Alignment (93.6% accuracy)</text><path d="M1131.3822,481.9346 L1141.7989,481.9346 C1157.4239,481.9346 1157.4239,582.8471 1173.0489,582.8471 L1183.4656,582.8471" fill="none" style="stroke:#2196F3;stroke-width:3.125;"/><path d="M858.6812,347.3846 L869.0979,347.3846 C884.7229,347.3846 884.7229,481.9346 900.3479,481.9346 L910.7646,481.9346" fill="none" style="stroke:#2196F3;stroke-width:3.125;"/><rect fill="url(#g6ebhoa8armn70)" filter="url(#f6ebhoa8armn7)" height="46.4417" rx="4.1667" ry="4.1667" style="stroke:#222222;stroke-width:1.0417;" width="202.9541" x="410.6934" y="189.6139"/><text fill="#222222" font-family="'Verdana'" font-size="12.5" lengthAdjust="spacing" textLength="171.7041" x="426.3184" y="217.806">Stage 1: Global Scalar Bias</text><rect fill="url(#g6ebhoa8armn70)" filter="url(#f6ebhoa8armn7)" height="46.4417" rx="4.1667" ry="4.1667" style="stroke:#222222;stroke-width:1.0417;" width="275.0061" x="83.6039" y="88.7014"/><text fill="#222222" font-family="'Verdana'" font-size="12.5" lengthAdjust="spacing" textLength="243.7561" x="99.2289" y="116.8935">Focus: Project-wide Load Management</text><path d="M410.6934,212.8347 L400.2767,212.8347 C384.6517,212.8347 384.6517,111.9222 369.0267,111.9222 L358.61,111.9222" fill="none" style="stroke:#2196F3;stroke-width:3.125;"/><rect fill="url(#g6ebhoa8armn70)" filter="url(#f6ebhoa8armn7)" height="46.4417" rx="4.1667" ry="4.1667" style="stroke:#222222;stroke-width:1.0417;" width="266.9006" x="91.7094" y="155.9764"/><text fill="#222222" font-family="'Verdana'" font-size="12.5" lengthAdjust="spacing" textLength="235.6506" x="107.3344" y="184.1685">Signal: Global CPU/GPU Frame Times</text><path d="M410.6934,212.8347 L400.2767,212.8347 C384.6517,212.8347 384.6517,179.1972 369.0267,179.1972 L358.61,179.1972" fill="none" style="stroke:#2196F3;stroke-width:3.125;"/><rect fill="url(#g6ebhoa8armn70)" filter="url(#f6ebhoa8armn7)" height="46.4417" rx="4.1667" ry="4.1667" style="stroke:#222222;stroke-width:1.0417;" width="256.9275" x="101.6825" y="223.2513"/><text fill="#222222" font-family="'Verdana'" font-size="12.5" lengthAdjust="spacing" textLength="225.6775" x="117.3075" y="251.4435">Action: Predict single float (lodBias)</text><path d="M410.6934,212.8347 L400.2767,212.8347 C384.6517,212.8347 384.6517,246.4722 369.0267,246.4722 L358.61,246.4722" fill="none" style="stroke:#2196F3;stroke-width:3.125;"/><rect fill="url(#g6ebhoa8armn70)" filter="url(#f6ebhoa8armn7)" height="46.4417" rx="4.1667" ry="4.1667" style="stroke:#222222;stroke-width:1.0417;" width="291.7358" x="66.8742" y="290.5263"/><text fill="#222222" font-family="'Verdana'" font-size="12.5" lengthAdjust="spacing" textLength="260.4858" x="82.4992" y="318.7185">Component: LODPredictor (3.9K params)</text><path d="M410.6934,212.8347 L400.2767,212.8347 C384.6517,212.8347 384.6517,313.7472 369.0267,313.7472 L358.61,313.7472" fill="none" style="stroke:#2196F3;stroke-width:3.125;"/><path d="M665.7308,347.3846 L655.3141,347.3846 C639.6891,347.3846 639.6891,212.8347 624.0641,212.8347 L613.6475,212.8347" fill="none" style="stroke:#2196F3;stroke-width:3.125;"/><rect fill="url(#g6ebhoa8armn70)" filter="url(#f6ebhoa8armn7)" height="46.4417" rx="4.1667" ry="4.1667" style="stroke:#222222;stroke-width:1.0417;" width="246.1853" x="367.4622" y="458.7138"/><text fill="#222222" font-family="'Verdana'" font-size="12.5" lengthAdjust="spacing" textLength="214.9353" x="383.0872" y="486.9059">Stage 2: Spatial Baker Thresholds</text><rect fill="url(#g6ebhoa8armn70)" filter="url(#f6ebhoa8armn7)" height="46.4417" rx="4.1667" ry="4.1667" style="stroke:#222222;stroke-width:1.0417;" width="240.5945" x="74.7843" y="357.8013"/><text fill="#222222" font-family="'Verdana'" font-size="12.5" lengthAdjust="spacing" textLength="209.3445" x="90.4093" y="385.9934">Focus: Scene-Specific Calibration</text><path d="M367.4622,481.9346 L357.0455,481.9346 C341.4205,481.9346 341.4205,381.0221 325.7955,381.0221 L315.3788,381.0221" fill="none" style="stroke:#2196F3;stroke-width:3.125;"/><rect fill="url(#g6ebhoa8armn70)" filter="url(#f6ebhoa8armn7)" height="46.4417" rx="4.1667" ry="4.1667" style="stroke:#222222;stroke-width:1.0417;" width="255.1514" x="60.2275" y="425.0763"/><text fill="#222222" font-family="'Verdana'" font-size="12.5" lengthAdjust="spacing" textLength="223.9014" x="75.8525" y="453.2684">Tool: Rasterized Bounding Box Grid</text><path d="M367.4622,481.9346 L357.0455,481.9346 C341.4205,481.9346 341.4205,448.2971 325.7955,448.2971 L315.3788,448.2971" fill="none" style="stroke:#2196F3;stroke-width:3.125;"/><rect fill="url(#g6ebhoa8armn70)" filter="url(#f6ebhoa8armn7)" height="46.4417" rx="4.1667" ry="4.1667" style="stroke:#222222;stroke-width:1.0417;" width="274.5361" x="40.8427" y="492.3513"/><text fill="#222222" font-family="'Verdana'" font-size="12.5" lengthAdjust="spacing" textLength="243.2861" x="56.4677" y="520.5434">Method: Profiling-based Baker Pipeline</text><path d="M367.4622,481.9346 L357.0455,481.9346 C341.4205,481.9346 341.4205,515.5721 325.7955,515.5721 L315.3788,515.5721" fill="none" style="stroke:#2196F3;stroke-width:3.125;"/><rect fill="url(#g6ebhoa8armn70)" filter="url(#f6ebhoa8armn7)" height="46.4417" rx="4.1667" ry="4.1667" style="stroke:#222222;stroke-width:1.0417;" width="304.9622" x="10.4167" y="559.6263"/><text fill="#222222" font-family="'Verdana'" font-size="12.5" lengthAdjust="spacing" textLength="273.7122" x="26.0417" y="587.8184">Component: BakerPredictor (171K params)</text><path d="M367.4622,481.9346 L357.0455,481.9346 C341.4205,481.9346 341.4205,582.8471 325.7955,582.8471 L315.3788,582.8471" fill="none" style="stroke:#2196F3;stroke-width:3.125;"/><path d="M665.7308,347.3846 L655.3141,347.3846 C639.6891,347.3846 639.6891,481.9346 624.0641,481.9346 L613.6475,481.9346" fill="none" style="stroke:#2196F3;stroke-width:3.125;"/><g class="caption" data-source-line="3"><text fill="#FFFFFF" font-family="'Verdana'" font-size="14.5833" lengthAdjust="spacing" textLength="310.9141" x="632.87" y="658.2296">Evolution of LOD Optimization Approaches</text></g><g class="footer" data-source-line="30"><text fill="#FFFFFF" font-family="'Verdana'" font-size="10.4167" lengthAdjust="spacing" textLength="200.0122" x="688.3209" y="726.9725">Technical Implementation Progression</text></g><?plantuml-src xHdRRjiszDd-2gxPXdI5KajEx2GOXZg-f46TD8ZJlWwqHDbSA56JgAHkaN_V8NKn9T5EBsuVXh98OV4SdlkDqgj4u5W4DFG27BL_4KiI41HWGMAAsqk2FHAZAvB6cA7fsn6wZla_n1Lj5qU2yX2DxpbBrI_kAuIti1_GZrZj3Q8evjXTagJT_gC9dgqIGOAsPQ6Pm0k2x5DqplWSMCrSp72CpYXE06oX2NVJvBJWRZrGZw0fnnwwn26S34We5DwCBaBCIZB3wtSlpw_VeKcCGQjR6f2CtC2L_2Kzub5Ne8I62qQGppWMQ9znJp9-hb27F8Xu2FHFfVpv0HwZ_Ux1oHiKOQ0Cc6iTd5CqYq0zu7w6xy1ujykO94lEl8ecCvU4n9f5nAK-TT4GCpgFbLKKrYtdeCKDJgGVFX8FdV4qz41A-F41dSVKKsYNH2ovf-pYKmPWQuuJYQquNzE8m2Qfww6WcYPstzOqUV4YrwGBPennc4f7l2SAjJm4M2zAfv3Ocf9xmj0je2TKkNR8Gn5pfl0AAbIiJj55w968m7-Xa0RjM5qarXQIw8LIboaJrEAfY5A1BgVNQFzyF7ttNE5SX88iCdi18W-vDITBV4-vZDCP4K0vsTULEJnL8j4mvMc2RgRecZFghdGzHgiG1-2B4M42Mxa2w7T9O0x65QkAT3VZYwl9svlX60tOWeDkoo0ZHXdu3CYDBmTe5d0kbj9jBz3eWJ2cOZ3Ez3pdCbAF3Zf10Zp018brY-C54K0HmbZ6DDe_wHxqVaFOTI43tHLev0D56LN4NOOKiWHT115J2P3b58J2GjAIaVGAx5naTljL9T5X9NSqL5v7S-pUBM8POKFEmCr2-X50CglMM6b2peZ0Cx6IgO9PGjhP-ZEHMt-r4Of1EFG9VY08iiqq9Nm2ziqWUvF9H6szNaKadjBmBj_tlJwn3nK8Tac-Q-F-iUkKkxTBwjw5e32orTubc926oEwefsligQpfgQVP4dlyGJvt3YJy4Vv23gL4YLpWsaVoIOdkyZW4OpkAM5sZFSS-wKswrbeYIQyeZ9yC4XOySnzkGv6CejTP-JKRTC_t_RebJuPE_wnJxcQkcaDcvLINEa4puvZu19paagtCjtZJSPpD0YH4nf8i9HkKqazlPjMWAwXWqeqj1OMAANtMEkCng72JaLUUrDPn0L_Re5K2RG3MH5C6jvJLMxgwAWWAMXNNgF1wy2XUZE1FfX0861BnmECx-RFLgYL1bKX9kMwZGm_F_IChHv3Y0YqjGug3hLf-GCnNMEPnstfijn8ItojdxqWeHHJ7CNzGD0rCMysKbcTKtAipaiDvFTxrOxzEByvVt_uz6joyQUZgA5tpMd04FulaFf9SyXJ3eH2QPmHExdPf0QDBolA47FbFawodz0-XCjHDfcJGgVL7zkHuPB9HNW0obwvJhN8wiwF9lDQUgrQLlKn9IJ2WZ2G2PeYwV0NJTVBPlU999IeLCDwud-FJKW3W1uEY6b_AQ5WqJnh4T1cN8v3nq73O7tGw1kjcCV7doxoJhPkUHtmCSuZ4lv8pPBQUlIUn1vFdCpEcia5UI1mT9QAekMoGQ8sJb3rANo9EYOQaDoUzegqnhg7NKvT64ED5WC4wr3d19Ac1YbL1CS2Lm1hAG2PvNY7NQw_Nw-bAGRiZN41_p-l-S6Ct6rQIBGy72HWqZlGxSx_VpO7wgUxeU7YOjS6BngcpljspXpbGFpMNW8pNs20UzhhT7AYVoaDA0guQf-QT8ySjWFgfF8CVDHjLMfX2QpL2nTHj35X54XMng53MUBjlZHNkPPjyr6TCHXOmZKhzpAbiSdizlIi4amSQC9oLXyhXeXpLLO3oS2jjlAsnAuHcTt-iZCiORe_tS1ymrkclwnLdk3XoE1nCZa3wcPpMQngD6tKUsbV0Gwz17qInyfGgSKm6pc5DEslgHkjIiaEDjGBLT5J3tdaNsmthhTgMGyjQ7ZXIOx6LGaB-JUK0tGZCulI686jj6x8hyL0S6DUk8fBVXqtfzQ4YYwpFShFUGE7oYrVrpIdrYUpHnX2g0YlfLeAC8ib186eAfRRh4folhqE6mMC4wGYGRLc0K85KPzY0wIfemBf8DyL5QQlRrbWDHKlGHieR5PwL_RIM4ORCpM-Zvb3ymYYiadSvOqIzIKjsbvrr5jbRc1-K_A3ZRklwLcvpUH37FumVNf2iX3V8SF3nWjJxg5eLcbsrQcIBAqizUmo3GZuGMRKUNOlkhJ4jGzg7Zc3KeqpuLZFTDAhokHvd-TlHxnN8D8IK1Rc9IUvoAArmGdlao7QT9ziDD4VvXjCyMScfLPhav5WDgVNN56fxky7p5sJ6iSraR5N2jaeCDxJKF0bEdCbmChRsY5ermXdm2TeU5bY-0_zHEUKodEom-hMoal_KgqPp0r2MDsJXG8YOpbEXuog_LG3PnTskwSVdyeFB3XNyPiaLxcT8dYR4tMqW62OSipQc0X236R7wolJfizfk8xs-acy4TFFoiBExoXT8MXN6vonxfzpQUcDvgaWLMq-oKv_zleYReGTjla_M2p4Mkm-tsYlIpxiMValUmEKb9TzjdiEnkV9_-s3WK_P5VSeq53GzwjxjqXG_lwV__9x-ytlw_-DxkdtWT9pUWVCV?></g></svg>